# xmcd
#
# Track frame offsets: 
#        150
#        15723
#        35600
#        50058
#        73145
#        90638
#        105580
#        122264
#        139664
#        155815
#        176422
#
# Disc length: 2675 seconds
#
# Revision: 0
# Processed by: cddbd v1.5.2PL0 Copyright (c) Steve Scherf et al.
# Submitted via: ExactAudioCopy v0.99pb5
#
DISCID=920a710b
DTITLE=Lucie Silvas - Letters to Ghosts
DYEAR=2015
DGENRE=Country
TTITLE0=Letters to Ghosts
TTITLE1=Smoke
TTITLE2=Find a Way
TTITLE3=Boots
TTITLE4=Unbreakable Us
TTITLE5=How to Lose It All
TTITLE6=Shame
TTITLE7=Pull the Stars Down
TTITLE8=Villain
TTITLE9=Happy
TTITLE10=You Got It
EXTD=
EXTT0=
EXTT1=
EXTT2=
EXTT3=
EXTT4=
EXTT5=
EXTT6=
EXTT7=
EXTT8=
EXTT9=
EXTT10=
PLAYORDER=
